<mxfile host="app.diagrams.net" modified="2023-12-04T07:15:13.206Z" agent="Mozilla/5.0 (Windows NT 10.0; Win64; x64) AppleWebKit/537.36 (KHTML, like Gecko) Chrome/119.0.0.0 Safari/537.36" etag="HnPEUYYcWI5QliWTQnuQ" version="22.1.5" type="github">
  <diagram id="C5RBs43oDa-KdzZeNtuy" name="Page-1">
    <mxGraphModel dx="1357" dy="897" grid="1" gridSize="10" guides="1" tooltips="1" connect="1" arrows="1" fold="1" page="1" pageScale="1" pageWidth="1169" pageHeight="827" math="0" shadow="0">
      <root>
        <mxCell id="WIyWlLk6GJQsqaUBKTNV-0" />
        <mxCell id="WIyWlLk6GJQsqaUBKTNV-1" parent="WIyWlLk6GJQsqaUBKTNV-0" />
        <mxCell id="mEKPdFL-0J3m6509--HJ-5" value="" style="edgeStyle=orthogonalEdgeStyle;rounded=0;orthogonalLoop=1;jettySize=auto;html=1;" parent="WIyWlLk6GJQsqaUBKTNV-1" source="mEKPdFL-0J3m6509--HJ-3" target="mEKPdFL-0J3m6509--HJ-4" edge="1">
          <mxGeometry relative="1" as="geometry" />
        </mxCell>
        <mxCell id="mEKPdFL-0J3m6509--HJ-3" value="Remote turned on" style="rounded=1;whiteSpace=wrap;html=1;" parent="WIyWlLk6GJQsqaUBKTNV-1" vertex="1">
          <mxGeometry x="110" y="173" width="120" height="40" as="geometry" />
        </mxCell>
        <mxCell id="mEKPdFL-0J3m6509--HJ-7" value="No" style="edgeStyle=orthogonalEdgeStyle;rounded=0;orthogonalLoop=1;jettySize=auto;html=1;" parent="WIyWlLk6GJQsqaUBKTNV-1" source="mEKPdFL-0J3m6509--HJ-4" target="mEKPdFL-0J3m6509--HJ-6" edge="1">
          <mxGeometry x="0.2171" y="15" relative="1" as="geometry">
            <mxPoint as="offset" />
          </mxGeometry>
        </mxCell>
        <mxCell id="mEKPdFL-0J3m6509--HJ-10" value="Yes" style="edgeStyle=orthogonalEdgeStyle;rounded=0;orthogonalLoop=1;jettySize=auto;html=1;" parent="WIyWlLk6GJQsqaUBKTNV-1" source="mEKPdFL-0J3m6509--HJ-4" target="mEKPdFL-0J3m6509--HJ-8" edge="1">
          <mxGeometry x="-0.5833" y="-20" relative="1" as="geometry">
            <mxPoint as="offset" />
          </mxGeometry>
        </mxCell>
        <mxCell id="mEKPdFL-0J3m6509--HJ-4" value="Connected&lt;br&gt;&amp;nbsp;to toy?" style="rhombus;whiteSpace=wrap;html=1;shadow=0;fontFamily=Helvetica;fontSize=12;align=center;strokeWidth=1;spacing=6;spacingTop=-4;" parent="WIyWlLk6GJQsqaUBKTNV-1" vertex="1">
          <mxGeometry x="120" y="260" width="100" height="90" as="geometry" />
        </mxCell>
        <mxCell id="mEKPdFL-0J3m6509--HJ-6" value="Attempt to connect" style="rounded=1;whiteSpace=wrap;html=1;fontSize=12;glass=0;strokeWidth=1;shadow=0;" parent="WIyWlLk6GJQsqaUBKTNV-1" vertex="1">
          <mxGeometry x="249" y="285" width="120" height="40" as="geometry" />
        </mxCell>
        <mxCell id="mEKPdFL-0J3m6509--HJ-9" value="Remote SW Flow" style="swimlane;whiteSpace=wrap;html=1;" parent="WIyWlLk6GJQsqaUBKTNV-1" vertex="1">
          <mxGeometry x="40" y="102" width="390" height="708" as="geometry" />
        </mxCell>
        <mxCell id="mEKPdFL-0J3m6509--HJ-19" value="No" style="edgeStyle=orthogonalEdgeStyle;rounded=0;orthogonalLoop=1;jettySize=auto;html=1;" parent="mEKPdFL-0J3m6509--HJ-9" source="mEKPdFL-0J3m6509--HJ-8" target="mEKPdFL-0J3m6509--HJ-18" edge="1">
          <mxGeometry x="-0.5238" y="12" relative="1" as="geometry">
            <mxPoint as="offset" />
          </mxGeometry>
        </mxCell>
        <mxCell id="mEKPdFL-0J3m6509--HJ-22" value="Yes&lt;br&gt;" style="edgeStyle=orthogonalEdgeStyle;rounded=0;orthogonalLoop=1;jettySize=auto;html=1;" parent="mEKPdFL-0J3m6509--HJ-9" source="mEKPdFL-0J3m6509--HJ-8" target="mEKPdFL-0J3m6509--HJ-21" edge="1">
          <mxGeometry x="0.66" y="-20" relative="1" as="geometry">
            <mxPoint as="offset" />
          </mxGeometry>
        </mxCell>
        <mxCell id="mEKPdFL-0J3m6509--HJ-8" value="Preset pushed?" style="rhombus;whiteSpace=wrap;html=1;shadow=0;fontFamily=Helvetica;fontSize=12;align=center;strokeWidth=1;spacing=6;spacingTop=-4;" parent="mEKPdFL-0J3m6509--HJ-9" vertex="1">
          <mxGeometry x="90" y="280" width="80" height="60" as="geometry" />
        </mxCell>
        <mxCell id="mEKPdFL-0J3m6509--HJ-16" value="" style="edgeStyle=orthogonalEdgeStyle;rounded=0;orthogonalLoop=1;jettySize=auto;html=1;" parent="mEKPdFL-0J3m6509--HJ-9" edge="1">
          <mxGeometry relative="1" as="geometry">
            <mxPoint x="265" y="183" as="sourcePoint" />
            <mxPoint x="130" y="138" as="targetPoint" />
            <Array as="points">
              <mxPoint x="280" y="183" />
              <mxPoint x="280" y="138" />
            </Array>
          </mxGeometry>
        </mxCell>
        <mxCell id="mEKPdFL-0J3m6509--HJ-18" value="Wait for button to be pushed" style="rounded=1;whiteSpace=wrap;html=1;shadow=0;strokeWidth=1;spacing=6;spacingTop=-4;" parent="mEKPdFL-0J3m6509--HJ-9" vertex="1">
          <mxGeometry x="213" y="288" width="120" height="45" as="geometry" />
        </mxCell>
        <mxCell id="mEKPdFL-0J3m6509--HJ-24" value="No" style="edgeStyle=orthogonalEdgeStyle;rounded=0;orthogonalLoop=1;jettySize=auto;html=1;" parent="mEKPdFL-0J3m6509--HJ-9" source="mEKPdFL-0J3m6509--HJ-21" target="mEKPdFL-0J3m6509--HJ-23" edge="1">
          <mxGeometry x="-0.398" y="10" relative="1" as="geometry">
            <mxPoint as="offset" />
          </mxGeometry>
        </mxCell>
        <mxCell id="mEKPdFL-0J3m6509--HJ-28" value="Yes" style="edgeStyle=orthogonalEdgeStyle;rounded=0;orthogonalLoop=1;jettySize=auto;html=1;" parent="mEKPdFL-0J3m6509--HJ-9" source="mEKPdFL-0J3m6509--HJ-21" target="mEKPdFL-0J3m6509--HJ-27" edge="1">
          <mxGeometry x="0.7037" y="-20" relative="1" as="geometry">
            <mxPoint as="offset" />
          </mxGeometry>
        </mxCell>
        <mxCell id="mEKPdFL-0J3m6509--HJ-21" value="Uploaded &lt;br&gt;preset &lt;br&gt;pushed?" style="rhombus;whiteSpace=wrap;html=1;shadow=0;fontFamily=Helvetica;fontSize=12;align=center;strokeWidth=1;spacing=6;spacingTop=-4;" parent="mEKPdFL-0J3m6509--HJ-9" vertex="1">
          <mxGeometry x="80" y="367" width="100" height="83" as="geometry" />
        </mxCell>
        <mxCell id="mEKPdFL-0J3m6509--HJ-25" value="" style="edgeStyle=orthogonalEdgeStyle;rounded=0;orthogonalLoop=1;jettySize=auto;html=1;" parent="mEKPdFL-0J3m6509--HJ-9" source="mEKPdFL-0J3m6509--HJ-23" target="mEKPdFL-0J3m6509--HJ-18" edge="1">
          <mxGeometry relative="1" as="geometry" />
        </mxCell>
        <mxCell id="mEKPdFL-0J3m6509--HJ-23" value="Send simple preset command to toy" style="rounded=1;whiteSpace=wrap;html=1;shadow=0;strokeWidth=1;spacing=6;spacingTop=-4;" parent="mEKPdFL-0J3m6509--HJ-9" vertex="1">
          <mxGeometry x="213" y="387.5" width="120" height="41.5" as="geometry" />
        </mxCell>
        <mxCell id="mEKPdFL-0J3m6509--HJ-30" value="No&lt;br&gt;" style="edgeStyle=orthogonalEdgeStyle;rounded=0;orthogonalLoop=1;jettySize=auto;html=1;" parent="mEKPdFL-0J3m6509--HJ-9" source="mEKPdFL-0J3m6509--HJ-27" target="mEKPdFL-0J3m6509--HJ-29" edge="1">
          <mxGeometry x="0.5" y="10" relative="1" as="geometry">
            <mxPoint as="offset" />
          </mxGeometry>
        </mxCell>
        <mxCell id="mEKPdFL-0J3m6509--HJ-33" value="Yes" style="edgeStyle=orthogonalEdgeStyle;rounded=0;orthogonalLoop=1;jettySize=auto;html=1;" parent="mEKPdFL-0J3m6509--HJ-9" source="mEKPdFL-0J3m6509--HJ-27" target="mEKPdFL-0J3m6509--HJ-32" edge="1">
          <mxGeometry x="0.5517" y="-20" relative="1" as="geometry">
            <mxPoint as="offset" />
          </mxGeometry>
        </mxCell>
        <mxCell id="mEKPdFL-0J3m6509--HJ-27" value="Has preset &lt;br&gt;been uploaded?" style="rhombus;whiteSpace=wrap;html=1;shadow=0;fontFamily=Helvetica;fontSize=12;align=center;strokeWidth=1;spacing=6;spacingTop=-4;" parent="mEKPdFL-0J3m6509--HJ-9" vertex="1">
          <mxGeometry x="70" y="476" width="120" height="83" as="geometry" />
        </mxCell>
        <mxCell id="mEKPdFL-0J3m6509--HJ-31" value="" style="edgeStyle=orthogonalEdgeStyle;rounded=0;orthogonalLoop=1;jettySize=auto;html=1;entryX=1;entryY=0.5;entryDx=0;entryDy=0;" parent="mEKPdFL-0J3m6509--HJ-9" source="mEKPdFL-0J3m6509--HJ-29" target="mEKPdFL-0J3m6509--HJ-18" edge="1">
          <mxGeometry relative="1" as="geometry">
            <Array as="points">
              <mxPoint x="296" y="458" />
              <mxPoint x="353" y="458" />
              <mxPoint x="353" y="310" />
            </Array>
          </mxGeometry>
        </mxCell>
        <mxCell id="mEKPdFL-0J3m6509--HJ-29" value="Send error message over serial. Wait for preset to be uploaded.&amp;nbsp;" style="rounded=1;whiteSpace=wrap;html=1;shadow=0;strokeWidth=1;spacing=6;spacingTop=-4;" parent="mEKPdFL-0J3m6509--HJ-9" vertex="1">
          <mxGeometry x="206" y="487.5" width="154" height="60" as="geometry" />
        </mxCell>
        <mxCell id="mEKPdFL-0J3m6509--HJ-32" value="Send uploaded angles and servo order to toy one by one to move each block the needed amount" style="rounded=1;whiteSpace=wrap;html=1;shadow=0;strokeWidth=1;spacing=6;spacingTop=-4;" parent="mEKPdFL-0J3m6509--HJ-9" vertex="1">
          <mxGeometry x="55" y="581" width="150" height="69" as="geometry" />
        </mxCell>
        <mxCell id="mEKPdFL-0J3m6509--HJ-20" value="" style="edgeStyle=orthogonalEdgeStyle;rounded=0;orthogonalLoop=1;jettySize=auto;html=1;" parent="WIyWlLk6GJQsqaUBKTNV-1" edge="1">
          <mxGeometry relative="1" as="geometry">
            <mxPoint x="320" y="390" as="sourcePoint" />
            <mxPoint x="170" y="359" as="targetPoint" />
            <Array as="points">
              <mxPoint x="320" y="359" />
            </Array>
          </mxGeometry>
        </mxCell>
        <mxCell id="mEKPdFL-0J3m6509--HJ-34" value="Toy SW Flow" style="swimlane;whiteSpace=wrap;html=1;" parent="WIyWlLk6GJQsqaUBKTNV-1" vertex="1">
          <mxGeometry x="450" y="102" width="510" height="708" as="geometry" />
        </mxCell>
        <mxCell id="LLmoycsXT1UhDd1f7sid-5" value="No" style="edgeStyle=orthogonalEdgeStyle;rounded=0;orthogonalLoop=1;jettySize=auto;html=1;" edge="1" parent="mEKPdFL-0J3m6509--HJ-34" source="mEKPdFL-0J3m6509--HJ-71" target="LLmoycsXT1UhDd1f7sid-4">
          <mxGeometry x="0.2002" y="9" relative="1" as="geometry">
            <mxPoint as="offset" />
          </mxGeometry>
        </mxCell>
        <mxCell id="LLmoycsXT1UhDd1f7sid-13" value="Yes" style="edgeStyle=orthogonalEdgeStyle;rounded=0;orthogonalLoop=1;jettySize=auto;html=1;" edge="1" parent="mEKPdFL-0J3m6509--HJ-34" source="mEKPdFL-0J3m6509--HJ-71" target="LLmoycsXT1UhDd1f7sid-12">
          <mxGeometry x="-0.0068" y="10" relative="1" as="geometry">
            <Array as="points">
              <mxPoint x="212" y="578" />
              <mxPoint x="259" y="578" />
            </Array>
            <mxPoint as="offset" />
          </mxGeometry>
        </mxCell>
        <mxCell id="mEKPdFL-0J3m6509--HJ-71" value="Servo&lt;br&gt;Angle?" style="rhombus;whiteSpace=wrap;html=1;shadow=0;fontFamily=Helvetica;fontSize=12;align=center;strokeWidth=1;spacing=6;spacingTop=-4;" parent="mEKPdFL-0J3m6509--HJ-34" vertex="1">
          <mxGeometry x="154" y="486" width="116" height="83" as="geometry" />
        </mxCell>
        <mxCell id="LLmoycsXT1UhDd1f7sid-4" value="Set commanded address as next block to give an angle&amp;nbsp;&amp;nbsp;" style="rounded=1;whiteSpace=wrap;html=1;shadow=0;strokeWidth=1;spacing=6;spacingTop=-4;" vertex="1" parent="mEKPdFL-0J3m6509--HJ-34">
          <mxGeometry x="300" y="497.5" width="130" height="60" as="geometry" />
        </mxCell>
        <mxCell id="LLmoycsXT1UhDd1f7sid-10" value="Send each individual servo angle for the specified preset with a 1sec delay&amp;nbsp;" style="rounded=1;whiteSpace=wrap;html=1;shadow=0;strokeWidth=1;spacing=6;spacingTop=-4;" vertex="1" parent="mEKPdFL-0J3m6509--HJ-34">
          <mxGeometry x="12" y="597.5" width="127" height="82.5" as="geometry" />
        </mxCell>
        <mxCell id="LLmoycsXT1UhDd1f7sid-12" value="Send servo angle to most recent address specified in memory" style="rounded=1;whiteSpace=wrap;html=1;shadow=0;strokeWidth=1;spacing=6;spacingTop=-4;" vertex="1" parent="mEKPdFL-0J3m6509--HJ-34">
          <mxGeometry x="199" y="596.5" width="120" height="84.5" as="geometry" />
        </mxCell>
        <mxCell id="mEKPdFL-0J3m6509--HJ-38" value="" style="edgeStyle=orthogonalEdgeStyle;rounded=0;orthogonalLoop=1;jettySize=auto;html=1;" parent="WIyWlLk6GJQsqaUBKTNV-1" source="mEKPdFL-0J3m6509--HJ-39" target="mEKPdFL-0J3m6509--HJ-42" edge="1">
          <mxGeometry relative="1" as="geometry" />
        </mxCell>
        <mxCell id="mEKPdFL-0J3m6509--HJ-39" value="Toy turned on" style="rounded=1;whiteSpace=wrap;html=1;" parent="WIyWlLk6GJQsqaUBKTNV-1" vertex="1">
          <mxGeometry x="504" y="171" width="120" height="40" as="geometry" />
        </mxCell>
        <mxCell id="mEKPdFL-0J3m6509--HJ-40" value="No" style="edgeStyle=orthogonalEdgeStyle;rounded=0;orthogonalLoop=1;jettySize=auto;html=1;" parent="WIyWlLk6GJQsqaUBKTNV-1" source="mEKPdFL-0J3m6509--HJ-42" target="mEKPdFL-0J3m6509--HJ-43" edge="1">
          <mxGeometry x="0.2171" y="15" relative="1" as="geometry">
            <mxPoint as="offset" />
          </mxGeometry>
        </mxCell>
        <mxCell id="mEKPdFL-0J3m6509--HJ-41" value="Yes" style="edgeStyle=orthogonalEdgeStyle;rounded=0;orthogonalLoop=1;jettySize=auto;html=1;entryX=0.5;entryY=0;entryDx=0;entryDy=0;" parent="WIyWlLk6GJQsqaUBKTNV-1" source="mEKPdFL-0J3m6509--HJ-42" target="mEKPdFL-0J3m6509--HJ-58" edge="1">
          <mxGeometry x="-0.5833" y="-20" relative="1" as="geometry">
            <mxPoint x="564" y="379" as="targetPoint" />
            <mxPoint as="offset" />
          </mxGeometry>
        </mxCell>
        <mxCell id="mEKPdFL-0J3m6509--HJ-42" value="Connected&lt;br&gt;&amp;nbsp;to toy?" style="rhombus;whiteSpace=wrap;html=1;shadow=0;fontFamily=Helvetica;fontSize=12;align=center;strokeWidth=1;spacing=6;spacingTop=-4;" parent="WIyWlLk6GJQsqaUBKTNV-1" vertex="1">
          <mxGeometry x="514" y="257" width="100" height="90" as="geometry" />
        </mxCell>
        <mxCell id="mEKPdFL-0J3m6509--HJ-43" value="Attempt to connect" style="rounded=1;whiteSpace=wrap;html=1;fontSize=12;glass=0;strokeWidth=1;shadow=0;" parent="WIyWlLk6GJQsqaUBKTNV-1" vertex="1">
          <mxGeometry x="643" y="282" width="120" height="40" as="geometry" />
        </mxCell>
        <mxCell id="mEKPdFL-0J3m6509--HJ-44" value="" style="edgeStyle=orthogonalEdgeStyle;rounded=0;orthogonalLoop=1;jettySize=auto;html=1;" parent="WIyWlLk6GJQsqaUBKTNV-1" edge="1">
          <mxGeometry relative="1" as="geometry">
            <mxPoint x="699" y="282" as="sourcePoint" />
            <mxPoint x="564" y="237" as="targetPoint" />
            <Array as="points">
              <mxPoint x="714" y="282" />
              <mxPoint x="714" y="237" />
            </Array>
          </mxGeometry>
        </mxCell>
        <mxCell id="mEKPdFL-0J3m6509--HJ-56" value="No" style="edgeStyle=orthogonalEdgeStyle;rounded=0;orthogonalLoop=1;jettySize=auto;html=1;" parent="WIyWlLk6GJQsqaUBKTNV-1" source="mEKPdFL-0J3m6509--HJ-58" target="mEKPdFL-0J3m6509--HJ-59" edge="1">
          <mxGeometry x="-0.5238" y="12" relative="1" as="geometry">
            <mxPoint as="offset" />
          </mxGeometry>
        </mxCell>
        <mxCell id="mEKPdFL-0J3m6509--HJ-57" value="Yes&lt;br&gt;" style="edgeStyle=orthogonalEdgeStyle;rounded=0;orthogonalLoop=1;jettySize=auto;html=1;" parent="WIyWlLk6GJQsqaUBKTNV-1" source="mEKPdFL-0J3m6509--HJ-58" target="mEKPdFL-0J3m6509--HJ-62" edge="1">
          <mxGeometry x="0.66" y="-20" relative="1" as="geometry">
            <mxPoint as="offset" />
          </mxGeometry>
        </mxCell>
        <mxCell id="mEKPdFL-0J3m6509--HJ-58" value="Command sent?" style="rhombus;whiteSpace=wrap;html=1;shadow=0;fontFamily=Helvetica;fontSize=12;align=center;strokeWidth=1;spacing=6;spacingTop=-4;" parent="WIyWlLk6GJQsqaUBKTNV-1" vertex="1">
          <mxGeometry x="517" y="372" width="94" height="70" as="geometry" />
        </mxCell>
        <mxCell id="mEKPdFL-0J3m6509--HJ-59" value="Wait for command to be sent" style="rounded=1;whiteSpace=wrap;html=1;shadow=0;strokeWidth=1;spacing=6;spacingTop=-4;" parent="WIyWlLk6GJQsqaUBKTNV-1" vertex="1">
          <mxGeometry x="646" y="384" width="120" height="45" as="geometry" />
        </mxCell>
        <mxCell id="mEKPdFL-0J3m6509--HJ-60" value="No" style="edgeStyle=orthogonalEdgeStyle;rounded=0;orthogonalLoop=1;jettySize=auto;html=1;" parent="WIyWlLk6GJQsqaUBKTNV-1" source="mEKPdFL-0J3m6509--HJ-62" target="mEKPdFL-0J3m6509--HJ-64" edge="1">
          <mxGeometry x="-0.398" y="10" relative="1" as="geometry">
            <mxPoint as="offset" />
          </mxGeometry>
        </mxCell>
        <mxCell id="mEKPdFL-0J3m6509--HJ-61" value="Yes" style="edgeStyle=orthogonalEdgeStyle;rounded=0;orthogonalLoop=1;jettySize=auto;html=1;" parent="WIyWlLk6GJQsqaUBKTNV-1" source="mEKPdFL-0J3m6509--HJ-62" target="mEKPdFL-0J3m6509--HJ-67" edge="1">
          <mxGeometry x="0.7037" y="-20" relative="1" as="geometry">
            <mxPoint as="offset" />
          </mxGeometry>
        </mxCell>
        <mxCell id="mEKPdFL-0J3m6509--HJ-62" value="Command&lt;br&gt;Valid?" style="rhombus;whiteSpace=wrap;html=1;shadow=0;fontFamily=Helvetica;fontSize=12;align=center;strokeWidth=1;spacing=6;spacingTop=-4;" parent="WIyWlLk6GJQsqaUBKTNV-1" vertex="1">
          <mxGeometry x="514" y="467" width="100" height="83" as="geometry" />
        </mxCell>
        <mxCell id="mEKPdFL-0J3m6509--HJ-63" value="" style="edgeStyle=orthogonalEdgeStyle;rounded=0;orthogonalLoop=1;jettySize=auto;html=1;" parent="WIyWlLk6GJQsqaUBKTNV-1" source="mEKPdFL-0J3m6509--HJ-64" target="mEKPdFL-0J3m6509--HJ-59" edge="1">
          <mxGeometry relative="1" as="geometry" />
        </mxCell>
        <mxCell id="mEKPdFL-0J3m6509--HJ-64" value="Send error message over serial." style="rounded=1;whiteSpace=wrap;html=1;shadow=0;strokeWidth=1;spacing=6;spacingTop=-4;" parent="WIyWlLk6GJQsqaUBKTNV-1" vertex="1">
          <mxGeometry x="646" y="487.5" width="120" height="41.5" as="geometry" />
        </mxCell>
        <mxCell id="mEKPdFL-0J3m6509--HJ-72" value="No" style="edgeStyle=orthogonalEdgeStyle;rounded=0;orthogonalLoop=1;jettySize=auto;html=1;" parent="WIyWlLk6GJQsqaUBKTNV-1" source="mEKPdFL-0J3m6509--HJ-67" target="mEKPdFL-0J3m6509--HJ-71" edge="1">
          <mxGeometry x="0.5255" y="9" relative="1" as="geometry">
            <mxPoint as="offset" />
          </mxGeometry>
        </mxCell>
        <mxCell id="LLmoycsXT1UhDd1f7sid-11" value="Yes" style="edgeStyle=orthogonalEdgeStyle;rounded=0;orthogonalLoop=1;jettySize=auto;html=1;" edge="1" parent="WIyWlLk6GJQsqaUBKTNV-1" source="mEKPdFL-0J3m6509--HJ-67" target="LLmoycsXT1UhDd1f7sid-10">
          <mxGeometry x="-0.3797" y="-15" relative="1" as="geometry">
            <mxPoint as="offset" />
          </mxGeometry>
        </mxCell>
        <mxCell id="mEKPdFL-0J3m6509--HJ-67" value="Preset &lt;br&gt;command?" style="rhombus;whiteSpace=wrap;html=1;shadow=0;fontFamily=Helvetica;fontSize=12;align=center;strokeWidth=1;spacing=6;spacingTop=-4;" parent="WIyWlLk6GJQsqaUBKTNV-1" vertex="1">
          <mxGeometry x="467" y="588" width="116" height="83" as="geometry" />
        </mxCell>
        <mxCell id="mEKPdFL-0J3m6509--HJ-70" value="" style="edgeStyle=orthogonalEdgeStyle;rounded=0;orthogonalLoop=1;jettySize=auto;html=1;" parent="WIyWlLk6GJQsqaUBKTNV-1" edge="1">
          <mxGeometry relative="1" as="geometry">
            <mxPoint x="713" y="388" as="sourcePoint" />
            <mxPoint x="563" y="357" as="targetPoint" />
            <Array as="points">
              <mxPoint x="713" y="357" />
            </Array>
          </mxGeometry>
        </mxCell>
        <mxCell id="LLmoycsXT1UhDd1f7sid-9" value="" style="edgeStyle=orthogonalEdgeStyle;rounded=0;orthogonalLoop=1;jettySize=auto;html=1;entryX=1;entryY=0.5;entryDx=0;entryDy=0;" edge="1" parent="WIyWlLk6GJQsqaUBKTNV-1" source="LLmoycsXT1UhDd1f7sid-4" target="mEKPdFL-0J3m6509--HJ-59">
          <mxGeometry relative="1" as="geometry">
            <mxPoint x="825" y="489.5" as="targetPoint" />
          </mxGeometry>
        </mxCell>
        <mxCell id="LLmoycsXT1UhDd1f7sid-15" value="" style="edgeStyle=orthogonalEdgeStyle;rounded=0;orthogonalLoop=1;jettySize=auto;html=1;entryX=1;entryY=0.5;entryDx=0;entryDy=0;" edge="1" parent="WIyWlLk6GJQsqaUBKTNV-1" source="LLmoycsXT1UhDd1f7sid-12" target="mEKPdFL-0J3m6509--HJ-59">
          <mxGeometry relative="1" as="geometry">
            <mxPoint x="910" y="550" as="targetPoint" />
            <Array as="points">
              <mxPoint x="920" y="741" />
              <mxPoint x="920" y="406" />
            </Array>
          </mxGeometry>
        </mxCell>
        <mxCell id="LLmoycsXT1UhDd1f7sid-17" value="" style="edgeStyle=orthogonalEdgeStyle;rounded=0;orthogonalLoop=1;jettySize=auto;html=1;entryX=1;entryY=0.5;entryDx=0;entryDy=0;" edge="1" parent="WIyWlLk6GJQsqaUBKTNV-1" source="LLmoycsXT1UhDd1f7sid-10" target="mEKPdFL-0J3m6509--HJ-59">
          <mxGeometry relative="1" as="geometry">
            <mxPoint x="525.5" y="903.25" as="targetPoint" />
            <Array as="points">
              <mxPoint x="526" y="800" />
              <mxPoint x="920" y="800" />
              <mxPoint x="920" y="406" />
            </Array>
          </mxGeometry>
        </mxCell>
      </root>
    </mxGraphModel>
  </diagram>
</mxfile>
